<?xml version="1.0" encoding="UTF-8" standalone="no"?>
<!DOCTYPE svg PUBLIC "-//W3C//DTD SVG 1.1//EN" "http://www.w3.org/Graphics/SVG/1.1/DTD/svg11.dtd">
<!-- Generated by graphviz version 2.40.1 (20161225.0304)
 -->
<!-- Title: StellaSwapLiquidTokenPairs Pages: 1 -->
<svg width="909pt" height="260pt" viewBox="0.00 0.00 909.03 260.00" xmlns="http://www.w3.org/2000/svg" xmlns:xlink="http://www.w3.org/1999/xlink">
<g id="graph0" class="graph" transform="scale(1 1) rotate(0) translate(4 256)">
<title>StellaSwapLiquidTokenPairs</title>
<polygon fill="#ffffff" stroke="transparent" points="-4,4 -4,-256 905.0346,-256 905.0346,4 -4,4"/>
<!-- axlATOM -->
<g id="node1" class="node">
<title>axlATOM</title>
<ellipse fill="none" stroke="#000000" cx="605.7877" cy="-234" rx="51.0242" ry="18"/>
<text text-anchor="middle" x="605.7877" y="-229.8" font-family="Times,serif" font-size="14.00" fill="#000000">axlATOM</text>
</g>
<!-- USDC -->
<g id="node2" class="node">
<title>USDC</title>
<ellipse fill="none" stroke="#000000" cx="780.7877" cy="-162" rx="36.5767" ry="18"/>
<text text-anchor="middle" x="780.7877" y="-157.8" font-family="Times,serif" font-size="14.00" fill="#000000">USDC</text>
</g>
<!-- axlATOM&#45;&gt;USDC -->
<g id="edge1" class="edge">
<title>axlATOM-&gt;USDC</title>
<path fill="none" stroke="#000000" d="M648.7608,-216.3196C677.6677,-204.4265 715.4138,-188.8967 743.139,-177.4897"/>
<polygon fill="#000000" stroke="#000000" points="647.032,-213.2462 639.1158,-220.2879 649.6954,-219.7197 647.032,-213.2462"/>
<polygon fill="#000000" stroke="#000000" points="744.5808,-180.6813 752.497,-173.6396 741.9174,-174.2078 744.5808,-180.6813"/>
</g>
<!-- WGLMR -->
<g id="node3" class="node">
<title>WGLMR</title>
<ellipse fill="none" stroke="#000000" cx="465.7877" cy="-90" rx="48.0935" ry="18"/>
<text text-anchor="middle" x="465.7877" y="-85.8" font-family="Times,serif" font-size="14.00" fill="#000000">WGLMR</text>
</g>
<!-- axlATOM&#45;&gt;WGLMR -->
<g id="edge2" class="edge">
<title>axlATOM-&gt;WGLMR</title>
<path fill="none" stroke="#000000" d="M578.9579,-210.4442C568.6877,-201.1701 556.9945,-190.2925 546.7877,-180 525.8649,-158.9014 503.3525,-133.6635 487.3847,-115.2897"/>
<polygon fill="#000000" stroke="#000000" points="576.702,-213.1223 586.486,-217.1873 581.3724,-207.9082 576.702,-213.1223"/>
<polygon fill="#000000" stroke="#000000" points="489.7258,-112.646 480.5379,-107.3703 484.4304,-117.2242 489.7258,-112.646"/>
</g>
<!-- USDC&#45;&gt;WGLMR -->
<g id="edge13" class="edge">
<title>USDC-&gt;WGLMR</title>
<path fill="none" stroke="#000000" d="M739.9119,-148.667C735.1567,-146.9642 730.3802,-145.3482 725.7877,-144 655.5857,-123.3907 572.7857,-108.0725 519.7223,-99.1154"/>
<polygon fill="#000000" stroke="#000000" points="738.9835,-152.0548 749.577,-152.2263 741.4026,-145.4861 738.9835,-152.0548"/>
<polygon fill="#000000" stroke="#000000" points="520.2849,-95.661 509.8445,-97.4632 519.13,-102.5651 520.2849,-95.661"/>
</g>
<!-- USDC&#45;&gt;WGLMR -->
<g id="edge14" class="edge">
<title>USDC-&gt;WGLMR</title>
<path fill="none" stroke="#000000" d="M747.0218,-144.9834C745.9371,-144.6426 744.8574,-144.314 743.7877,-144 668.4917,-121.8952 578.7031,-105.8773 521.8597,-97.2665"/>
<polygon fill="#000000" stroke="#000000" points="746.1918,-148.3984 756.7864,-148.3193 748.4549,-141.7743 746.1918,-148.3984"/>
<polygon fill="#000000" stroke="#000000" points="522.0465,-93.7558 511.6401,-95.7451 521.0157,-100.6795 522.0465,-93.7558"/>
</g>
<!-- BNB -->
<g id="node10" class="node">
<title>BNB</title>
<ellipse fill="none" stroke="#000000" cx="779.7877" cy="-90" rx="30.777" ry="18"/>
<text text-anchor="middle" x="779.7877" y="-85.8" font-family="Times,serif" font-size="14.00" fill="#000000">BNB</text>
</g>
<!-- USDC&#45;&gt;BNB -->
<g id="edge10" class="edge">
<title>USDC-&gt;BNB</title>
<path fill="none" stroke="#000000" d="M780.3929,-133.5726C780.3249,-128.6792 780.2542,-123.5904 780.1862,-118.6901"/>
<polygon fill="#000000" stroke="#000000" points="776.8967,-133.881 780.5354,-143.8314 783.8961,-133.7837 776.8967,-133.881"/>
<polygon fill="#000000" stroke="#000000" points="783.6821,-118.3637 780.0435,-108.4133 776.6828,-118.4609 783.6821,-118.3637"/>
</g>
<!-- ETH -->
<g id="node11" class="node">
<title>ETH</title>
<ellipse fill="none" stroke="#000000" cx="718.7877" cy="-18" rx="29.6147" ry="18"/>
<text text-anchor="middle" x="718.7877" y="-13.8" font-family="Times,serif" font-size="14.00" fill="#000000">ETH</text>
</g>
<!-- USDC&#45;&gt;ETH -->
<g id="edge11" class="edge">
<title>USDC-&gt;ETH</title>
<path fill="none" stroke="#000000" d="M758.6061,-137.3421C751.7065,-128.5892 744.644,-118.3337 739.7877,-108 730.5463,-88.3352 725.2057,-64.2905 722.2249,-46.0027"/>
<polygon fill="#000000" stroke="#000000" points="756.0374,-139.7289 765.0939,-145.2272 761.4429,-135.2813 756.0374,-139.7289"/>
<polygon fill="#000000" stroke="#000000" points="725.6667,-45.3518 720.7309,-35.9769 718.7431,-46.3836 725.6667,-45.3518"/>
</g>
<!-- USDT -->
<g id="node12" class="node">
<title>USDT</title>
<ellipse fill="none" stroke="#000000" cx="864.7877" cy="-90" rx="36.4955" ry="18"/>
<text text-anchor="middle" x="864.7877" y="-85.8" font-family="Times,serif" font-size="14.00" fill="#000000">USDT</text>
</g>
<!-- USDC&#45;&gt;USDT -->
<g id="edge12" class="edge">
<title>USDC-&gt;USDT</title>
<path fill="none" stroke="#000000" d="M807.0564,-139.484C817.1607,-130.8231 828.685,-120.9452 838.7659,-112.3044"/>
<polygon fill="#000000" stroke="#000000" points="804.7448,-136.8555 799.43,-146.0209 809.3004,-142.1703 804.7448,-136.8555"/>
<polygon fill="#000000" stroke="#000000" points="841.1717,-114.8521 846.4865,-105.6867 836.6161,-109.5373 841.1717,-114.8521"/>
</g>
<!-- WGLMR&#45;&gt;ETH -->
<g id="edge18" class="edge">
<title>WGLMR-&gt;ETH</title>
<path fill="none" stroke="#000000" d="M517.9597,-79.0094C561.0654,-69.3682 623.593,-54.085 676.7877,-36 679.6982,-35.0105 682.6899,-33.9081 685.6715,-32.7498"/>
<polygon fill="#000000" stroke="#000000" points="516.989,-75.6394 507.9818,-81.2179 518.5019,-82.474 516.989,-75.6394"/>
<polygon fill="#000000" stroke="#000000" points="687.1092,-35.9434 695.0491,-28.9285 684.4676,-29.4609 687.1092,-35.9434"/>
</g>
<!-- FTM -->
<g id="node16" class="node">
<title>FTM</title>
<ellipse fill="none" stroke="#000000" cx="558.7877" cy="-18" rx="30.777" ry="18"/>
<text text-anchor="middle" x="558.7877" y="-13.8" font-family="Times,serif" font-size="14.00" fill="#000000">FTM</text>
</g>
<!-- WGLMR&#45;&gt;FTM -->
<g id="edge19" class="edge">
<title>WGLMR-&gt;FTM</title>
<path fill="none" stroke="#000000" d="M495.1633,-67.2576C506.959,-58.1254 520.4637,-47.6702 531.9879,-38.7482"/>
<polygon fill="#000000" stroke="#000000" points="492.6555,-64.7728 486.8909,-73.6621 496.9407,-70.3079 492.6555,-64.7728"/>
<polygon fill="#000000" stroke="#000000" points="534.2119,-41.4528 539.9765,-32.5635 529.9266,-35.9177 534.2119,-41.4528"/>
</g>
<!-- MAI -->
<g id="node17" class="node">
<title>MAI</title>
<ellipse fill="none" stroke="#000000" cx="637.7877" cy="-18" rx="29.6147" ry="18"/>
<text text-anchor="middle" x="637.7877" y="-13.8" font-family="Times,serif" font-size="14.00" fill="#000000">MAI</text>
</g>
<!-- WGLMR&#45;&gt;MAI -->
<g id="edge20" class="edge">
<title>WGLMR-&gt;MAI</title>
<path fill="none" stroke="#000000" d="M508.6515,-73.1864C534.8186,-62.7763 568.8824,-48.9638 598.7877,-36 600.6351,-35.1992 602.5265,-34.3671 604.4323,-33.5192"/>
<polygon fill="#000000" stroke="#000000" points="507.0396,-70.0604 499.0345,-77.0008 509.6204,-76.5673 507.0396,-70.0604"/>
<polygon fill="#000000" stroke="#000000" points="606.2718,-36.5287 613.942,-29.2198 603.3881,-30.1502 606.2718,-36.5287"/>
</g>
<!-- xcDOT -->
<g id="node18" class="node">
<title>xcDOT</title>
<ellipse fill="none" stroke="#000000" cx="260.7877" cy="-18" rx="39.9876" ry="18"/>
<text text-anchor="middle" x="260.7877" y="-13.8" font-family="Times,serif" font-size="14.00" fill="#000000">xcDOT</text>
</g>
<!-- WGLMR&#45;&gt;xcDOT -->
<g id="edge21" class="edge">
<title>WGLMR-&gt;xcDOT</title>
<path fill="none" stroke="#000000" d="M420.3872,-74.5361C389.2196,-63.8585 346.9335,-49.2504 309.7877,-36 307.0669,-35.0294 304.2639,-34.0215 301.4415,-33.0006"/>
<polygon fill="#000000" stroke="#000000" points="419.5006,-77.932 430.0952,-77.8581 421.7669,-71.309 419.5006,-77.932"/>
<polygon fill="#000000" stroke="#000000" points="302.4555,-29.6451 291.8614,-29.5147 300.0619,-36.2231 302.4555,-29.6451"/>
</g>
<!-- xcINTR -->
<g id="node19" class="node">
<title>xcINTR</title>
<ellipse fill="none" stroke="#000000" cx="361.7877" cy="-18" rx="42.8557" ry="18"/>
<text text-anchor="middle" x="361.7877" y="-13.8" font-family="Times,serif" font-size="14.00" fill="#000000">xcINTR</text>
</g>
<!-- WGLMR&#45;&gt;xcINTR -->
<g id="edge22" class="edge">
<title>WGLMR-&gt;xcINTR</title>
<path fill="none" stroke="#000000" d="M434.0974,-68.0606C420.8405,-58.8827 405.4941,-48.2582 392.3587,-39.1645"/>
<polygon fill="#000000" stroke="#000000" points="432.4926,-71.2064 442.7067,-74.0209 436.4771,-65.451 432.4926,-71.2064"/>
<polygon fill="#000000" stroke="#000000" points="394.3045,-36.2547 384.0903,-33.4403 390.32,-42.0101 394.3045,-36.2547"/>
</g>
<!-- xcaUSD -->
<g id="node20" class="node">
<title>xcaUSD</title>
<ellipse fill="none" stroke="#000000" cx="465.7877" cy="-18" rx="44.0002" ry="18"/>
<text text-anchor="middle" x="465.7877" y="-13.8" font-family="Times,serif" font-size="14.00" fill="#000000">xcaUSD</text>
</g>
<!-- WGLMR&#45;&gt;xcaUSD -->
<g id="edge23" class="edge">
<title>WGLMR-&gt;xcaUSD</title>
<path fill="none" stroke="#000000" d="M465.7877,-61.5726C465.7877,-56.6792 465.7877,-51.5904 465.7877,-46.6901"/>
<polygon fill="#000000" stroke="#000000" points="462.2878,-61.8313 465.7877,-71.8314 469.2878,-61.8314 462.2878,-61.8313"/>
<polygon fill="#000000" stroke="#000000" points="469.2878,-46.4132 465.7877,-36.4133 462.2878,-46.4133 469.2878,-46.4132"/>
</g>
<!-- AVAX -->
<g id="node4" class="node">
<title>AVAX</title>
<ellipse fill="none" stroke="#000000" cx="594.7877" cy="-162" rx="38.844" ry="18"/>
<text text-anchor="middle" x="594.7877" y="-157.8" font-family="Times,serif" font-size="14.00" fill="#000000">AVAX</text>
</g>
<!-- AVAX&#45;&gt;WGLMR -->
<g id="edge3" class="edge">
<title>AVAX-&gt;WGLMR</title>
<path fill="none" stroke="#000000" d="M560.901,-143.0865C542.6357,-132.8919 520.1061,-120.3173 501.5594,-109.9656"/>
<polygon fill="#000000" stroke="#000000" points="559.4774,-146.3002 569.9152,-148.1177 562.889,-140.1878 559.4774,-146.3002"/>
<polygon fill="#000000" stroke="#000000" points="503.2485,-106.9001 492.8107,-105.0826 499.8369,-113.0125 503.2485,-106.9001"/>
</g>
<!-- BUSD -->
<g id="node5" class="node">
<title>BUSD</title>
<ellipse fill="none" stroke="#000000" cx="688.7877" cy="-162" rx="36.5767" ry="18"/>
<text text-anchor="middle" x="688.7877" y="-157.8" font-family="Times,serif" font-size="14.00" fill="#000000">BUSD</text>
</g>
<!-- BUSD&#45;&gt;WGLMR -->
<g id="edge4" class="edge">
<title>BUSD-&gt;WGLMR</title>
<path fill="none" stroke="#000000" d="M650.6475,-146.8171C647.9958,-145.8413 645.357,-144.8931 642.7877,-144 599.6546,-129.0061 549.8544,-114.0155 514.0872,-103.6466"/>
<polygon fill="#000000" stroke="#000000" points="649.6129,-150.1675 660.2046,-150.423 652.084,-143.6182 649.6129,-150.1675"/>
<polygon fill="#000000" stroke="#000000" points="514.9667,-100.2577 504.3884,-100.8485 513.0263,-106.9834 514.9667,-100.2577"/>
</g>
<!-- DAI -->
<g id="node6" class="node">
<title>DAI</title>
<ellipse fill="none" stroke="#000000" cx="780.7877" cy="-234" rx="28.3893" ry="18"/>
<text text-anchor="middle" x="780.7877" y="-229.8" font-family="Times,serif" font-size="14.00" fill="#000000">DAI</text>
</g>
<!-- DAI&#45;&gt;USDC -->
<g id="edge5" class="edge">
<title>DAI-&gt;USDC</title>
<path fill="none" stroke="#000000" d="M780.7877,-205.5726C780.7877,-200.6792 780.7877,-195.5904 780.7877,-190.6901"/>
<polygon fill="#000000" stroke="#000000" points="777.2878,-205.8313 780.7877,-215.8314 784.2878,-205.8314 777.2878,-205.8313"/>
<polygon fill="#000000" stroke="#000000" points="784.2878,-190.4132 780.7877,-180.4133 777.2878,-190.4133 784.2878,-190.4132"/>
</g>
<!-- FRAX -->
<g id="node7" class="node">
<title>FRAX</title>
<ellipse fill="none" stroke="#000000" cx="36.7877" cy="-162" rx="36.5767" ry="18"/>
<text text-anchor="middle" x="36.7877" y="-157.8" font-family="Times,serif" font-size="14.00" fill="#000000">FRAX</text>
</g>
<!-- FRAX&#45;&gt;WGLMR -->
<g id="edge6" class="edge">
<title>FRAX-&gt;WGLMR</title>
<path fill="none" stroke="#000000" d="M74.2697,-146.5165C77.1272,-145.5879 79.9881,-144.7344 82.7877,-144 195.8474,-114.3436 332.2255,-100.0512 407.9435,-93.9403"/>
<polygon fill="#000000" stroke="#000000" points="72.9327,-143.2766 64.6623,-149.8986 75.2571,-149.8794 72.9327,-143.2766"/>
<polygon fill="#000000" stroke="#000000" points="408.5219,-97.4057 418.2163,-93.1316 407.9725,-90.4273 408.5219,-97.4057"/>
</g>
<!-- MATIC -->
<g id="node8" class="node">
<title>MATIC</title>
<ellipse fill="none" stroke="#000000" cx="133.7877" cy="-162" rx="42.2932" ry="18"/>
<text text-anchor="middle" x="133.7877" y="-157.8" font-family="Times,serif" font-size="14.00" fill="#000000">MATIC</text>
</g>
<!-- MATIC&#45;&gt;WGLMR -->
<g id="edge7" class="edge">
<title>MATIC-&gt;WGLMR</title>
<path fill="none" stroke="#000000" d="M176.4604,-147.7127C180.9394,-146.3845 185.4426,-145.1192 189.7877,-144 265.9022,-124.394 355.4284,-108.0926 411.4012,-98.6925"/>
<polygon fill="#000000" stroke="#000000" points="175.2972,-144.4085 166.7644,-150.6887 177.3512,-151.1004 175.2972,-144.4085"/>
<polygon fill="#000000" stroke="#000000" points="412.1624,-102.1141 421.4513,-97.0184 411.0121,-95.2092 412.1624,-102.1141"/>
</g>
<!-- STELLA -->
<g id="node9" class="node">
<title>STELLA</title>
<ellipse fill="none" stroke="#000000" cx="385.7877" cy="-234" rx="46.9477" ry="18"/>
<text text-anchor="middle" x="385.7877" y="-229.8" font-family="Times,serif" font-size="14.00" fill="#000000">STELLA</text>
</g>
<!-- STELLA&#45;&gt;USDC -->
<g id="edge8" class="edge">
<title>STELLA-&gt;USDC</title>
<path fill="none" stroke="#000000" d="M440.7112,-226.9987C524.5507,-216.0578 680.4452,-194.6455 734.7877,-180 737.5823,-179.2468 740.4396,-178.3794 743.2944,-177.4409"/>
<polygon fill="#000000" stroke="#000000" points="440.0747,-223.5519 430.6093,-228.3118 440.977,-230.4935 440.0747,-223.5519"/>
<polygon fill="#000000" stroke="#000000" points="744.6394,-180.6777 752.8966,-174.0393 742.3019,-174.0795 744.6394,-180.6777"/>
</g>
<!-- STELLA&#45;&gt;WGLMR -->
<g id="edge9" class="edge">
<title>STELLA-&gt;WGLMR</title>
<path fill="none" stroke="#000000" d="M331.9818,-225.0033C272.1811,-212.6782 188.2745,-187.0248 222.7877,-144 245.6328,-115.521 344.1742,-101.1118 408.5408,-94.6058"/>
<polygon fill="#000000" stroke="#000000" points="331.6008,-228.4958 342.0908,-227.0093 332.9633,-221.6297 331.6008,-228.4958"/>
<polygon fill="#000000" stroke="#000000" points="408.9479,-98.0828 418.5609,-93.6285 408.2684,-91.1158 408.9479,-98.0828"/>
</g>
<!-- WBTC -->
<g id="node13" class="node">
<title>WBTC</title>
<ellipse fill="none" stroke="#000000" cx="270.7877" cy="-162" rx="38.8632" ry="18"/>
<text text-anchor="middle" x="270.7877" y="-157.8" font-family="Times,serif" font-size="14.00" fill="#000000">WBTC</text>
</g>
<!-- WBTC&#45;&gt;WGLMR -->
<g id="edge15" class="edge">
<title>WBTC-&gt;WGLMR</title>
<path fill="none" stroke="#000000" d="M310.5032,-147.083C313.306,-146.0376 316.089,-145.0017 318.7877,-144 353.3673,-131.1651 392.5795,-116.7686 421.8031,-106.07"/>
<polygon fill="#000000" stroke="#000000" points="309.132,-143.859 300.9904,-150.6387 311.5829,-150.4159 309.132,-143.859"/>
<polygon fill="#000000" stroke="#000000" points="423.1215,-109.3146 431.3097,-102.5912 420.7159,-102.7409 423.1215,-109.3146"/>
</g>
<!-- WELL -->
<g id="node14" class="node">
<title>WELL</title>
<ellipse fill="none" stroke="#000000" cx="365.7877" cy="-162" rx="37.7006" ry="18"/>
<text text-anchor="middle" x="365.7877" y="-157.8" font-family="Times,serif" font-size="14.00" fill="#000000">WELL</text>
</g>
<!-- WELL&#45;&gt;WGLMR -->
<g id="edge16" class="edge">
<title>WELL-&gt;WGLMR</title>
<path fill="none" stroke="#000000" d="M395.2125,-140.8142C407.7796,-131.7659 422.4472,-121.2052 435.1451,-112.0627"/>
<polygon fill="#000000" stroke="#000000" points="393.0654,-138.0472 386.9951,-146.7307 397.1556,-143.7279 393.0654,-138.0472"/>
<polygon fill="#000000" stroke="#000000" points="437.5009,-114.6794 443.5712,-105.9959 433.4108,-108.9986 437.5009,-114.6794"/>
</g>
<!-- WETH -->
<g id="node15" class="node">
<title>WETH</title>
<ellipse fill="none" stroke="#000000" cx="460.7877" cy="-162" rx="38.844" ry="18"/>
<text text-anchor="middle" x="460.7877" y="-157.8" font-family="Times,serif" font-size="14.00" fill="#000000">WETH</text>
</g>
<!-- WETH&#45;&gt;WGLMR -->
<g id="edge17" class="edge">
<title>WETH-&gt;WGLMR</title>
<path fill="none" stroke="#000000" d="M462.7423,-133.8545C463.0946,-128.781 463.4621,-123.4887 463.815,-118.4078"/>
<polygon fill="#000000" stroke="#000000" points="459.2507,-133.6129 462.0494,-143.8314 466.2339,-134.0979 459.2507,-133.6129"/>
<polygon fill="#000000" stroke="#000000" points="467.3077,-118.6317 464.509,-108.4133 460.3246,-118.1467 467.3077,-118.6317"/>
</g>
</g>
</svg>